// SSTR - Sample start
<region> sample=KEPSREC021.flac
key=0
pitch_keycenter=21
ampeg_release=0.900

<region> sample=KEPSREC021.flac
key=1
pitch_keycenter=21
ampeg_release=0.900

<region> sample=KEPSREC021.flac
key=2
pitch_keycenter=21
ampeg_release=0.900

<region> sample=KEPSREC021.flac
key=3
pitch_keycenter=21
ampeg_release=0.900

<region> sample=KEPSREC021.flac
key=4
pitch_keycenter=21
ampeg_release=0.900

<region> sample=KEPSREC021.flac
key=5
pitch_keycenter=21
ampeg_release=0.900

<region> sample=KEPSREC021.flac
key=6
pitch_keycenter=21
ampeg_release=0.900

<region> sample=KEPSREC021.flac
key=7
pitch_keycenter=21
ampeg_release=0.900

<region> sample=KEPSREC021.flac
key=8
pitch_keycenter=21
ampeg_release=0.900

<region> sample=KEPSREC021.flac
key=9
pitch_keycenter=21
ampeg_release=0.900

<region> sample=KEPSREC021.flac
key=10
pitch_keycenter=21
ampeg_release=0.900

<region> sample=KEPSREC021.flac
key=11
pitch_keycenter=21
ampeg_release=0.900

<region> sample=KEPSREC021.flac
key=12
pitch_keycenter=21
ampeg_release=0.900

<region> sample=KEPSREC021.flac
key=13
pitch_keycenter=21
ampeg_release=0.900

<region> sample=KEPSREC021.flac
key=14
pitch_keycenter=21
ampeg_release=0.900

<region> sample=KEPSREC021.flac
key=15
pitch_keycenter=21
ampeg_release=0.900

<region> sample=KEPSREC021.flac
key=16
pitch_keycenter=21
ampeg_release=0.900

<region> sample=KEPSREC021.flac
key=17
pitch_keycenter=21
ampeg_release=0.900

<region> sample=KEPSREC021.flac
key=18
pitch_keycenter=21
ampeg_release=0.900

<region> sample=KEPSREC021.flac
key=19
pitch_keycenter=21
ampeg_release=0.900

<region> sample=KEPSREC021.flac
key=20
pitch_keycenter=21
ampeg_release=0.900

<region> sample=KEPSREC021.flac
key=21
ampeg_release=0.900

<region> sample=KEPSREC022.flac
key=22
ampeg_release=0.900

<region> sample=KEPSREC023.flac
key=23
ampeg_release=0.900

<region> sample=KEPSREC024.flac
key=24
ampeg_release=0.900

<region> sample=KEPSREC025.flac
key=25
ampeg_release=0.900

<region> sample=KEPSREC026.flac
key=26
ampeg_release=0.900

<region> sample=KEPSREC027.flac
key=27
ampeg_release=0.900

<region> sample=KEPSREC028.flac
key=28
ampeg_release=0.900

<region> sample=KEPSREC029.flac
key=29
ampeg_release=0.900

<region> sample=KEPSREC030.flac
key=30
ampeg_release=0.900

<region> sample=KEPSREC031.flac
key=31
ampeg_release=0.900

<region> sample=KEPSREC032.flac
key=32 
ampeg_release=0.900

<region> sample=KEPSREC033.flac
key=33
ampeg_release=0.900

<region> sample=KEPSREC034.flac
key=34
ampeg_release=0.900

<region> sample=KEPSREC035.flac
key=35
ampeg_release=0.900

<region> sample=KEPSREC036.flac
key=36
ampeg_release=0.900

<region> sample=KEPSREC037.flac
key=37
ampeg_release=0.900

<region> sample=KEPSREC038.flac
key=38
ampeg_release=0.900

<region> sample=KEPSREC039.flac
key=39
ampeg_release=0.900

<region> sample=KEPSREC040.flac
key=40
ampeg_release=0.900

<region> sample=KEPSREC041.flac
key=41
ampeg_release=0.900

<region> sample=KEPSREC042.flac
key=42
ampeg_release=0.900

<region> sample=KEPSREC043.flac
key=43
ampeg_release=0.900

<region> sample=KEPSREC044.flac
key=44
ampeg_release=0.900

<region> sample=KEPSREC045.flac
key=45
ampeg_release=0.900

<region> sample=KEPSREC046.flac
key=46
ampeg_release=0.900

<region> sample=KEPSREC047.flac
key=47
ampeg_release=0.900

<region> sample=KEPSREC048.flac
key=48
ampeg_release=0.900

<region> sample=KEPSREC049.flac
key=49
ampeg_release=0.900

<region> sample=KEPSREC050.flac
key=50
ampeg_release=0.900

<region> sample=KEPSREC051.flac
key=51
ampeg_release=0.900

<region> sample=KEPSREC052.flac
key=52
ampeg_release=0.900

<region> sample=KEPSREC053.flac
key=53
ampeg_release=0.900

<region> sample=KEPSREC054.flac
key=54
ampeg_release=0.900

<region> sample=KEPSREC055.flac
key=55
ampeg_release=0.900

<region> sample=KEPSREC056.flac
key=56
ampeg_release=0.900

<region> sample=KEPSREC057.flac
key=57
ampeg_release=0.900

<region> sample=KEPSREC058.flac
key=58
ampeg_release=0.900

<region> sample=KEPSREC059.flac
key=59
ampeg_release=0.900

<region> sample=KEPSREC060.flac
key=60
ampeg_release=0.900

<region> sample=KEPSREC061.flac
key=61
ampeg_release=0.900

<region> sample=KEPSREC062.flac
key=62
ampeg_release=0.900

<region> sample=KEPSREC063.flac
key=63
ampeg_release=0.900

<region> sample=KEPSREC064.flac
key=64
ampeg_release=0.900

<region> sample=KEPSREC065.flac
key=65
ampeg_release=0.900

<region> sample=KEPSREC066.flac
key=66
ampeg_release=0.900

<region> sample=KEPSREC067.flac
key=67
ampeg_release=0.900

<region> sample=KEPSREC068.flac
key=68
ampeg_release=0.900

<region> sample=KEPSREC069.flac
key=69
ampeg_release=0.900

<region> sample=KEPSREC070.flac
key=70
ampeg_release=0.900

<region> sample=KEPSREC071.flac
key=71
ampeg_release=0.900

<region> sample=KEPSREC072.flac
key=72
ampeg_release=1.100

<region> sample=KEPSREC073.flac
key=73
ampeg_release=1.300

<region> sample=KEPSREC074.flac
key=74
ampeg_release=1.500

<region> sample=KEPSREC075.flac
key=75
ampeg_release=1.750

<region> sample=KEPSREC076.flac
key=76
ampeg_release=1.750

<region> sample=KEPSREC077.flac
key=77
ampeg_release=2.120

<region> sample=KEPSREC078.flac
key=78
ampeg_release=2.120

<region> sample=KEPSREC079.flac
key=79
ampeg_release=2.120

<region> sample=KEPSREC080.flac
key=80
ampeg_release=2.120

<region> sample=KEPSREC081.flac
key=81
ampeg_release=2.350

<region> sample=KEPSREC082.flac
key=82
ampeg_release=2.350

<region> sample=KEPSREC083.flac
key=83
ampeg_release=2.350

<region> sample=KEPSREC084.flac
key=84
ampeg_release=2.850

<region> sample=KEPSREC085.flac
key=85
ampeg_release=2.850

<region> sample=KEPSREC086.flac
key=86
ampeg_release=3.000

<region> sample=KEPSREC087.flac
key=87
ampeg_release=3.000

<region> sample=KEPSREC088.flac
key=88
ampeg_release=3.000

<region> sample=KEPSREC089.flac
key=89
ampeg_release=3.000

<region> sample=KEPSREC090.flac
key=90
ampeg_release=3.000

<region> sample=KEPSREC091.flac
key=91
ampeg_release=3.000

<region> sample=KEPSREC092.flac
key=92
ampeg_release=3.000

<region> sample=KEPSREC093.flac
key=93
ampeg_release=3.210

<region> sample=KEPSREC094.flac
key=94
ampeg_release=3.210

<region> sample=KEPSREC095.flac
key=95
ampeg_release=3.210

<region> sample=KEPSREC096.flac
key=96
ampeg_release=3.210

<region> sample=KEPSREC097.flac
key=97
ampeg_release=3.210

<region> sample=KEPSREC098.flac
key=98
ampeg_release=3.210

<region> sample=KEPSREC099.flac
key=99
ampeg_release=3.210

<region> sample=KEPSREC100.flac
key=100
ampeg_release=3.500

<region> sample=KEPSREC101.flac
key=101
ampeg_release=3.500

<region> sample=KEPSREC102.flac
key=102
ampeg_release=3.500

<region> sample=KEPSREC103.flac
key=103
ampeg_release=3.500

<region> sample=KEPSREC104.flac
key=104
ampeg_release=3.500

<region> sample=KEPSREC105.flac
key=105
ampeg_release=3.500

<region> sample=KEPSREC106.flac
key=106
ampeg_release=3.500

<region> sample=KEPSREC107.flac
key=107
ampeg_release=3.500

<region> sample=KEPSREC108.flac
key=108
pitch_keycenter=108
ampeg_release=3.500

<region> sample=KEPSREC108.flac
key=109
pitch_keycenter=108
ampeg_release=3.500

<region> sample=KEPSREC108.flac
key=110
pitch_keycenter=108
ampeg_release=3.500

<region> sample=KEPSREC108.flac
key=111
pitch_keycenter=108
ampeg_release=3.500

<region> sample=KEPSREC108.flac
key=112
pitch_keycenter=108
ampeg_release=3.500

<region> sample=KEPSREC108.flac
key=113
pitch_keycenter=108
ampeg_release=3.500

<region> sample=KEPSREC108.flac
key=114
pitch_keycenter=108
ampeg_release=3.500

<region> sample=KEPSREC108.flac
key=115
pitch_keycenter=108
ampeg_release=3.500

<region> sample=KEPSREC108.flac
key=116
pitch_keycenter=108
ampeg_release=3.500

<region> sample=KEPSREC108.flac
key=117
pitch_keycenter=108
ampeg_release=3.500

<region> sample=KEPSREC108.flac
key=118
pitch_keycenter=108
ampeg_release=3.500

<region> sample=KEPSREC108.flac
key=119
pitch_keycenter=108
ampeg_release=3.500

<region> sample=KEPSREC108.flac
key=120
pitch_keycenter=108
ampeg_release=3.500

<region> sample=KEPSREC108.flac
key=121
pitch_keycenter=108
ampeg_release=3.500

<region> sample=KEPSREC108.flac
key=122
pitch_keycenter=108
ampeg_release=3.500

<region> sample=KEPSREC108.flac
key=123
pitch_keycenter=108
ampeg_release=3.500

<region> sample=KEPSREC108.flac
key=124
pitch_keycenter=108
ampeg_release=3.500

<region> sample=KEPSREC108.flac
key=125
pitch_keycenter=108
ampeg_release=3.500

<region> sample=KEPSREC108.flac
key=126
pitch_keycenter=108
ampeg_release=3.500

<region> sample=KEPSREC108.flac
key=127
pitch_keycenter=108
ampeg_release=3.500
// ESTR - Sample end